# xmcd
#
# Track frame offsets: 
#        150
#        25213
#        40946
#        62643
#        81173
#        111974
#        139668
#        163307
#        177979
#        207542
#        222586
#        255571
#        270235
#
# Disc length: 3958 seconds
#
# Revision: 0
# Processed by: cddbd v1.5.1PL0 Copyright (c) Steve Scherf et al.
# Submitted via: ExactAudioCopy v0.95a5
#
DISCID=c00f740d
DTITLE=Two Gallants - Two Gallants...
DYEAR=1900
DGENRE=Blues
TTITLE0=Two Days Short Tomorrow
TTITLE1=Jesus Waxen Old
TTITLE2=Negrophelia Blues
TTITLE3=Get Proud
TTITLE4=My Baby Gone
TTITLE5=Lady
TTITLE6=Dyin' Crapshooters Blues
TTITLE7=This Feather Weight Heart Of Mine
TTITLE8=Kill Sunshine
TTITLE9=Big Lucille
TTITLE10=Diamond Joe
TTITLE11=Settin' The Woods
TTITLE12=Dappens
EXTD=
EXTT0=
EXTT1=
EXTT2=
EXTT3=
EXTT4=
EXTT5=
EXTT6=
EXTT7=
EXTT8=
EXTT9=
EXTT10=
EXTT11=
EXTT12=
PLAYORDER=
